<svg width="38" height="30" viewBox="0 0 38 30" fill="none" xmlns="http://www.w3.org/2000/svg">
<path d="M15.9516 11.7673C17.9082 12.5514 20.0917 12.5514 22.0483 11.7673L36.6673 5.91641C36.1753 4.21661 35.1464 2.72171 33.7343 1.65526C32.3222 0.588811 30.6029 0.00811182 28.8333 0H9.16659C7.39706 0.00811182 5.6777 0.588811 4.26561 1.65526C2.85352 2.72171 1.82459 4.21661 1.33267 5.91641L15.9516 11.7673Z" fill="#00AF08"/>
<path d="M23.2611 14.7502C20.5258 15.8445 17.4743 15.8445 14.7389 14.7502L0.972168 9.30908V21.3058C0.972168 23.4791 1.83551 25.5634 3.37227 27.1002C4.90904 28.6369 6.99333 29.5003 9.16664 29.5003H28.8334C31.0067 29.5003 33.091 28.6369 34.6278 27.1002C36.1645 25.5634 37.0279 23.4791 37.0279 21.3058V9.30908L23.2611 14.7502Z" fill="#00AF08"/>
</svg>
