<svg width="120" height="17" viewBox="0 0 120 17" fill="none" xmlns="http://www.w3.org/2000/svg">
<path d="M9.74249 0.217958L12.4179 5.37297L18.3985 6.19982C18.4744 6.21051 18.5456 6.24108 18.6042 6.28808C18.6628 6.33508 18.7063 6.39665 18.73 6.46584C18.7536 6.53504 18.7564 6.60911 18.738 6.67973C18.7196 6.75035 18.6808 6.8147 18.6259 6.86554L14.2992 10.8773L15.3207 16.5431C15.3339 16.6147 15.3256 16.6884 15.2969 16.7558C15.2681 16.8232 15.22 16.8816 15.158 16.9244C15.096 16.9672 15.0226 16.9927 14.9461 16.9979C14.8696 17.0032 14.793 16.988 14.7252 16.9542L9.37561 14.2797L4.02605 16.955C3.95822 16.9889 3.8817 17.0042 3.80517 16.999C3.72865 16.9938 3.65519 16.9684 3.59315 16.9256C3.53111 16.8828 3.48298 16.8244 3.45422 16.757C3.42547 16.6896 3.41724 16.6159 3.43048 16.5442L4.45205 10.8773L0.124054 6.86554C0.0691767 6.8147 0.0303653 6.75035 0.01199 6.67973C-0.00638516 6.60911 -0.00359424 6.53504 0.0200485 6.46584C0.0436913 6.39665 0.0872468 6.33508 0.14581 6.28808C0.204373 6.24108 0.275618 6.21051 0.351521 6.19982L6.33212 5.37297L9.00873 0.217958C9.04211 0.152633 9.09423 0.0975412 9.15911 0.0589931C9.224 0.0204451 9.29903 0 9.37561 0C9.45219 0 9.52722 0.0204451 9.59211 0.0589931C9.65699 0.0975412 9.70911 0.152633 9.74249 0.217958Z" fill="#F5C311"/>
<path d="M35.0549 0.217958L37.7303 5.37297L43.7109 6.19982C43.7868 6.21051 43.8581 6.24108 43.9166 6.28808C43.9752 6.33508 44.0187 6.39665 44.0424 6.46584C44.066 6.53504 44.0688 6.60911 44.0504 6.67973C44.0321 6.75035 43.9933 6.8147 43.9384 6.86554L39.6116 10.8773L40.6332 16.5431C40.6463 16.6147 40.6381 16.6884 40.6093 16.7558C40.5805 16.8232 40.5324 16.8816 40.4704 16.9244C40.4084 16.9672 40.335 16.9927 40.2585 16.9979C40.182 17.0032 40.1055 16.988 40.0376 16.9542L34.6881 14.2797L29.3385 16.955C29.2707 16.9889 29.1941 17.0042 29.1176 16.999C29.0411 16.9938 28.9676 16.9684 28.9056 16.9256C28.8436 16.8828 28.7954 16.8244 28.7667 16.757C28.7379 16.6896 28.7297 16.6159 28.7429 16.5442L29.7645 10.8773L25.4365 6.86554C25.3816 6.8147 25.3428 6.75035 25.3244 6.67973C25.3061 6.60911 25.3088 6.53504 25.3325 6.46584C25.3561 6.39665 25.3997 6.33508 25.4582 6.28808C25.5168 6.24108 25.5881 6.21051 25.664 6.19982L31.6446 5.37297L34.3212 0.217958C34.3545 0.152633 34.4067 0.0975412 34.4716 0.0589931C34.5364 0.0204451 34.6115 0 34.6881 0C34.7646 0 34.8397 0.0204451 34.9045 0.0589931C34.9694 0.0975412 35.0216 0.152633 35.0549 0.217958Z" fill="#F5C311"/>
<path d="M60.3676 0.217958L63.0429 5.37297L69.0235 6.19982C69.0994 6.21051 69.1707 6.24108 69.2293 6.28808C69.2878 6.33508 69.3314 6.39665 69.355 6.46584C69.3787 6.53504 69.3814 6.60911 69.3631 6.67973C69.3447 6.75035 69.3059 6.8147 69.251 6.86554L64.9242 10.8773L65.9458 16.5431C65.959 16.6147 65.9507 16.6884 65.9219 16.7558C65.8932 16.8232 65.8451 16.8816 65.7831 16.9244C65.7211 16.9672 65.6476 16.9927 65.5711 16.9979C65.4946 17.0032 65.4181 16.988 65.3502 16.9542L60.0007 14.2797L54.6511 16.955C54.5833 16.9889 54.5068 17.0042 54.4302 16.999C54.3537 16.9938 54.2803 16.9684 54.2182 16.9256C54.1562 16.8828 54.108 16.8244 54.0793 16.757C54.0505 16.6896 54.0423 16.6159 54.0555 16.5442L55.0771 10.8773L50.7491 6.86554C50.6942 6.8147 50.6554 6.75035 50.6371 6.67973C50.6187 6.60911 50.6215 6.53504 50.6451 6.46584C50.6688 6.39665 50.7123 6.33508 50.7709 6.28808C50.8294 6.24108 50.9007 6.21051 50.9766 6.19982L56.9572 5.37297L59.6338 0.217958C59.6672 0.152633 59.7193 0.0975412 59.7842 0.0589931C59.8491 0.0204451 59.9241 0 60.0007 0C60.0773 0 60.1523 0.0204451 60.2172 0.0589931C60.2821 0.0975412 60.3342 0.152633 60.3676 0.217958Z" fill="#F5C311"/>
<path d="M85.68 0.217958L88.3554 5.37297L94.336 6.19982C94.4119 6.21051 94.4831 6.24108 94.5417 6.28808C94.6003 6.33508 94.6438 6.39665 94.6675 6.46584C94.6911 6.53504 94.6939 6.60911 94.6755 6.67973C94.6571 6.75035 94.6183 6.8147 94.5634 6.86554L90.2367 10.8773L91.2582 16.5431C91.2714 16.6147 91.2631 16.6884 91.2344 16.7558C91.2056 16.8232 91.1575 16.8816 91.0955 16.9244C91.0335 16.9672 90.9601 16.9927 90.8836 16.9979C90.8071 17.0032 90.7305 16.988 90.6627 16.9542L85.3131 14.2797L79.9636 16.955C79.8957 16.9889 79.8192 17.0042 79.7427 16.999C79.6661 16.9938 79.5927 16.9684 79.5307 16.9256C79.4686 16.8828 79.4205 16.8244 79.3917 16.757C79.363 16.6896 79.3547 16.6159 79.368 16.5442L80.3895 10.8773L76.0616 6.86554C76.0067 6.8147 75.9679 6.75035 75.9495 6.67973C75.9311 6.60911 75.9339 6.53504 75.9575 6.46584C75.9812 6.39665 76.0247 6.33508 76.0833 6.28808C76.1419 6.24108 76.2131 6.21051 76.289 6.19982L82.2696 5.37297L84.9462 0.217958C84.9796 0.152633 85.0317 0.0975412 85.0966 0.0589931C85.1615 0.0204451 85.2365 0 85.3131 0C85.3897 0 85.4647 0.0204451 85.5296 0.0589931C85.5945 0.0975412 85.6466 0.152633 85.68 0.217958Z" fill="#F5C311"/>
<path d="M110.992 0.217958L113.668 5.37297L119.648 6.19982C119.724 6.21051 119.796 6.24108 119.854 6.28808C119.913 6.33508 119.956 6.39665 119.98 6.46584C120.004 6.53504 120.006 6.60911 119.988 6.67973C119.97 6.75035 119.931 6.8147 119.876 6.86554L115.549 10.8773L116.571 16.5431C116.584 16.6147 116.576 16.6884 116.547 16.7558C116.518 16.8232 116.47 16.8816 116.408 16.9244C116.346 16.9672 116.273 16.9927 116.196 16.9979C116.12 17.0032 116.043 16.988 115.975 16.9542L110.626 14.2797L105.276 16.955C105.208 16.9889 105.132 17.0042 105.055 16.999C104.979 16.9938 104.905 16.9684 104.843 16.9256C104.781 16.8828 104.733 16.8244 104.704 16.757C104.675 16.6896 104.667 16.6159 104.68 16.5442L105.702 10.8773L101.374 6.86554C101.319 6.8147 101.28 6.75035 101.262 6.67973C101.244 6.60911 101.246 6.53504 101.27 6.46584C101.294 6.39665 101.337 6.33508 101.396 6.28808C101.454 6.24108 101.526 6.21051 101.601 6.19982L107.582 5.37297L110.259 0.217958C110.292 0.152633 110.344 0.0975412 110.409 0.0589931C110.474 0.0204451 110.549 0 110.626 0C110.702 0 110.777 0.0204451 110.842 0.0589931C110.907 0.0975412 110.959 0.152633 110.992 0.217958Z" fill="#F5C311"/>
</svg>
