<svg width="32" height="35" viewBox="0 0 32 35" fill="none" xmlns="http://www.w3.org/2000/svg">
<path d="M16 0.500244C11.9012 0.500244 7.97029 2.12849 5.072 5.02678C2.17371 7.92507 0.545471 11.856 0.545471 15.9548C0.545471 26.1548 12.2137 34.5002 16 34.5002C19.7864 34.5002 31.4546 26.1548 31.4546 15.9548C31.4546 11.856 29.8263 7.92507 26.928 5.02678C24.0297 2.12849 20.0988 0.500244 16 0.500244ZM16 22.1366C14.7774 22.1366 13.5822 21.774 12.5656 21.0948C11.549 20.4155 10.7566 19.45 10.2888 18.3205C9.82087 17.1909 9.69845 15.9479 9.93698 14.7488C10.1755 13.5496 10.7643 12.4481 11.6288 11.5836C12.4934 10.719 13.5948 10.1303 14.794 9.89175C15.9932 9.65323 17.2361 9.77565 18.3657 10.2435C19.4953 10.7114 20.4607 11.5038 21.14 12.5204C21.8193 13.537 22.1818 14.7321 22.1818 15.9548C22.1818 17.5943 21.5305 19.1667 20.3712 20.326C19.2119 21.4853 17.6395 22.1366 16 22.1366Z" fill="#00AF08"/>
</svg>
